<svg xmlns="http://www.w3.org/2000/svg" width="46" height="46" viewBox="0 0 46 46">
  <g id="documents_f" transform="translate(-2 -2)">
    <path id="Path_328" data-name="Path 328" d="M29.707,20.293l-10-10L19.414,10H2V48H30V20.586ZM8,32H20v2H8Zm16,8H8V38H24Zm0-12H8V26H24Zm-5-7V12.414L27.586,21Z" fill="#5540b7"/>
    <path id="Path_329" data-name="Path 329" d="M47.707,12.293h0l-10-10h0L37.414,2H20V7.758L30.237,18.094,30.242,18H42v2H32v4h6v2H32v4H42v2H32v8H48V12.586ZM37,13V4.414L45.586,13Z" fill="#5540b7"/>
  </g>
</svg>
