<svg xmlns="http://www.w3.org/2000/svg" width="50.475" height="52.58" viewBox="0 0 50.475 52.58">
  <g id="syringe_f" transform="translate(-10 -0.525)">
    <g id="Group_272" data-name="Group 272" transform="translate(10 41.104)">
      <path id="Path_310" data-name="Path 310" d="M10,398V393.79L17.79,386l2.105,2.105Z" transform="translate(-10 -386)" fill="#5540b7"/>
    </g>
    <g id="Group_273" data-name="Group 273" transform="translate(35.32 6.841)">
      <path id="Path_311" data-name="Path 311" d="M268.366,79.366a.971.971,0,0,1-.705-.295L250.817,62.228a1,1,0,1,1,1.411-1.411l16.843,16.843a1,1,0,0,1,0,1.411A.971.971,0,0,1,268.366,79.366Z" transform="translate(-250.525 -60.525)" fill="#5540b7"/>
    </g>
    <g id="Group_274" data-name="Group 274" transform="translate(47.953 0.525)">
      <path id="Path_312" data-name="Path 312" d="M382.05,13.05a.971.971,0,0,1-.705-.295L370.817,2.228A1,1,0,1,1,372.228.817l10.527,10.527a1,1,0,0,1,0,1.411A.971.971,0,0,1,382.05,13.05Z" transform="translate(-370.525 -0.525)" fill="#5540b7"/>
    </g>
    <g id="Group_275" data-name="Group 275" transform="translate(42.962 2.914)">
      <rect id="Rectangle_229" data-name="Rectangle 229" width="10.317" height="11.053" transform="translate(0 7.295) rotate(-45)" fill="#5540b7"/>
    </g>
    <g id="Group_276" data-name="Group 276" transform="translate(15.264 10.249)">
      <path id="Path_313" data-name="Path 313" d="M83.476,92.908l-23.16,23.16a1.47,1.47,0,0,0-.316.947l2.105,8.422a1.04,1.04,0,0,0,.737.737l8.422,2.105h.211a.956.956,0,0,0,.737-.316l23.16-23.16C95.9,104.488,83.9,92.487,83.476,92.908ZM69.159,119.647a1.018,1.018,0,0,1-1.474,0l-4-3.79v-.105l1.474-1.474h.105l3.9,3.9A1.018,1.018,0,0,1,69.159,119.647Zm2.105-6.316a1.018,1.018,0,0,1-1.474,0L68,111.541c-.105,0-.105-.105,0,0l1.369-1.474h.105l1.79,1.79A1.018,1.018,0,0,1,71.264,113.331Zm6.316-2.105a1.018,1.018,0,0,1-1.474,0l-4-3.79v-.105l1.474-1.474h.105l3.9,3.9A1.018,1.018,0,0,1,77.58,111.225Zm2.105-6.316a1.018,1.018,0,0,1-1.474,0l-1.79-1.79c-.105,0-.105-.105,0,0l1.369-1.474H77.9l1.79,1.79A1.018,1.018,0,0,1,79.686,104.909ZM85.9,102.8a1.018,1.018,0,0,1-1.474,0l-3.9-3.9V98.8L82,97.329l3.9,4A1.018,1.018,0,0,1,85.9,102.8Z" transform="translate(-60 -92.897)" fill="#5540b7"/>
    </g>
  </g>
</svg>
