<svg xmlns="http://www.w3.org/2000/svg" width="48" height="49" viewBox="0 0 48 49">
  <g id="stethoscope_f" transform="translate(-2)">
    <path id="Path_314" data-name="Path 314" d="M19.319,28.563a1,1,0,0,1-.5-1.867C24.813,23.251,28,6.207,28,4.385c0-.523-1.723-1.2-3.134-1.394a1,1,0,1,1,.268-1.982C25.945,1.119,30,1.8,30,4.385c0,1.243-2.835,19.822-10.184,24.045A1,1,0,0,1,19.319,28.563Z" fill="#5540b7"/>
    <path id="Path_315" data-name="Path 315" d="M16,35c-2.481,0-4-4.15-4-6.41A2.37,2.37,0,0,1,14.729,26c.195,0,.4.007.616.014.42.014.889.016,1.309,0,.215-.007.421-.014.616-.014A2.37,2.37,0,0,1,20,28.59C20,30.85,18.481,35,16,35Z" fill="#5540b7"/>
    <path id="Path_316" data-name="Path 316" d="M43,23a7,7,0,1,0,7,7A7.009,7.009,0,0,0,43,23Zm0,10a3,3,0,1,1,3-3A3,3,0,0,1,43,33Z" fill="#5540b7"/>
    <circle id="Ellipse_139" data-name="Ellipse 139" cx="2" cy="2" r="2" transform="translate(6)" fill="#5540b7"/>
    <path id="Path_317" data-name="Path 317" d="M12.681,28.563a1,1,0,0,1-.5-.133C4.835,24.207,2,5.627,2,4.385,2,1.8,6.054,1.119,6.866,1.009A1,1,0,0,1,7.135,2.99C5.553,3.208,4,3.9,4,4.385,4,6.207,7.187,23.252,13.18,26.7a1,1,0,0,1-.5,1.867Z" fill="#5540b7"/>
    <circle id="Ellipse_140" data-name="Ellipse 140" cx="2" cy="2" r="2" transform="translate(22)" fill="#5540b7"/>
    <g id="Group_277" data-name="Group 277">
      <path id="Path_318" data-name="Path 318" d="M43,39a9.045,9.045,0,0,1-1.357-.113C40.835,42.232,38.238,47,30,47c-9.765,0-12.327-4.774-12.871-10.166A4.162,4.162,0,0,1,16,37a4.217,4.217,0,0,1-.9-.107C15.522,41.792,17.8,49,30,49c9.883,0,12.793-6.152,13.646-10.033C43.434,38.982,43.219,39,43,39Z" fill="#5540b7"/>
    </g>
  </g>
</svg>
