<svg xmlns="http://www.w3.org/2000/svg" width="39.987" height="40.155" viewBox="0 0 39.987 40.155">
  <path id="tablet_f" d="M37.592,4.419a11.6,11.6,0,0,0-16.452,0c-.662.667-16.04,16.1-16.736,16.8a11.728,11.728,0,0,0,0,16.514,11.6,11.6,0,0,0,16.452,0c.564-.569,16.032-16.1,16.735-16.8A11.725,11.725,0,0,0,37.592,4.419Zm-1.176,15.33-6.949,6.974L15.376,12.575c3.5-3.51,6.653-6.679,6.944-6.973a9.941,9.941,0,0,1,14.094,0A10.047,10.047,0,0,1,36.417,19.749Z" transform="translate(-1.007 -1)" fill="#5540b7"/>
</svg>
