<svg enable-background="new 0 0 140 140" height="512" viewBox="0 0 140 140" width="512" xmlns="http://www.w3.org/2000/svg"><circle cx="70" cy="70" fill="#ea8953" r="64"/><path d="m31.7292843 103.7349854c.0800171.0899658.1699829.1400146.2600098.1699829l29.5167828 29.5167847c2.7808265.3690185 5.6121863.578247 8.4939002.578247 31.7390747 0 58.0668259-23.1090088 63.1130295-53.4160767l-52.1837082-52.2889366-.0999756-.0999756-.0600586-.0500488c-.1999512-.1900024-.4199829-.3399658-.6299438-.4799805-.6600342-.4400024-4.8800049-1.5800171-8.1300049 1.2299805-2.9100342 2.5100098-1.1799927 8.210022.039978 9.4899902h-.0100098l.6600342.6700439c-.1199951 1.0999756-.4500122 2.2000122-.4500122 2.2000122s-5.2900391 2.3499756-6.4800415 6.3099976c-.1699829.539978-.3099976 1.2099609-.4299927 1.9599609 0 0-1.2199707 1.7000122-2.4599648 3.6300049-1.2399902 1.9400024-2.4899902 4.1000366-2.5599976 5.0400391-.0200195.2399902.1099854.5.3499756.7599487h-.0100098l3.7999916 3.8200073c0 .8599854 0 1.5700035.0200195 2.0300255.0700073 1.9299927-.4199829 3.4899902-.700016 4.2099609-.0299683.0599976-.0499878.1300049-.0899658.2200317-.0599976.1400146-.1000366.2299805-.1000366.2299805s0 .0100098-.0099487.0400391c-.3900146.9799805-1.210022 3-1.7600098 4.2699585-.5300293 1.25-.4400024 3.8699951-.3400269 5.25-2.8300171 6.6400146-.9299927 13.2399902-.9299927 13.2399902s-6.0800171-.9400024-9.8499756-.6199951c-.4000244.0300293-.8699951.0700073-1.3600464.1199951v-.0099487c-.0299683.0099487-.0599976.0099487-.0799561.0099487-.1600342.0200195-.3200073.0300293-.4800415.0500488-.1199951.0099487-.25.0199585-.3800049.0299683-.1599731.0200195-.3199463.0300293-.4799805.0499878l-.3900146.0300293c-.1699829.0200195-.3399658.039978-.5199585.0499878-.1300049.0200195-.2600098.0300293-.3900146.039978-.1799927.0200195-.3599854.0400391-.539978.0500488-.1000366.0099487-.2000122.0199585-.3100586.0299683-.2099609.0200195-.4299927.039978-.6499634.0700073-.0300293 0-.0700073 0-.1000366.0100098-.75.0700073-1.4899902.1400146-2.1799927.2099609-.0999756.0100098-.1999512.0200195-.2999878.0300293-.1599731.0200195-.3200073.039978-.4799805.0499878-.0499878 0-.0900269.0100098-.1300049.0100098l-1.0800171-1.0800171-.0100098.0100098c-.039978-.039978-.0799561-.0899658-.1300049-.1300049l-2.9099728-1.8999633-.2800293-.1700439-.0199585-.0199585s0 0-.0100098 0c-.1099854-.0599976-.8499756-.3800049-1.9199829.4699707-.3200073.2600098-.6600342.6000366-1.0200195 1.1000366-1.7000122 2.2999878-1.1699829 4.039978-2.3499756 5.9899902-.0100098.0299683-.0300293.0599976-.0500488.0899658-.8599834 1.5300293-1.1999493 4.210022-.8899517 5.8099976.0999756.4800415.25.8699951.4699707 1.0900269z" opacity=".1"/><path d="m65.3347321 49.5209541s-4.8724098 6.808651-5.0161514 8.6772881c-.1437416 1.8686333 8.6244736 4.8871994 10.3493652 5.3184242 1.7248917.431221 6.2332687 1.653019 7.3210602 2.5873375 1.0877991.9343185.4449921 1.0389938 2.3814697 0 1.9364777-1.0389862 2.371727-1.0061874 2.371727-1.7248917 0-.718708-3.3423767-2.0484085-4.905365-2.3178749s-12.5021057-12.5402832-12.5021057-12.5402832z" fill="#f7be56"/><path d="m83.7099762 37.1079063c-.1111603.8360748-1.1407928.3047943-1.1407928.3047943s-.4942551.2676888-.3789291 1.0255127c.1112137.7619209-.2306595.4983292-.2306595.4983292s-.1111603.1894608-.0370026.3418427c.0782242.1523857.0782242.3418465-.3707275.5312843-.4488602.1894646-.008194.7619476-.008194.7619476.1523819 1.2190704-1.8286667.724865-2.5535278 1.0666885-.7207489.3418465-1.4702988 2.5740891-1.4702988 2.5740891 3.4183578 4.9175453 2.8829803 7.47929 1.5074005 12.5945168-1.3797531 5.1152267-3.0106812 15.4733772-3.0106812 15.4733772-3.0312424.5518951-5.3293762.704277-7.0673904.6136551-5.8977814-.3047638-5.3623505-3.4266281-5.3623505-3.4266281s.9884109-1.9810181.8895721-4.6580734c-.0988388-2.6729317.0988388-13.2740631 1.2891541-17.2402229 1.1902161-3.9620399 6.4867096-6.313736 6.4867096-6.313736s.687767-2.3187408.4570999-3.574894c-.2264862-1.2561493-1.6350479-3.9990921-.4570999-7.4998531 1.1819687-3.5048847 3.9990921-1.9439659 6.3590088-1.9810448 2.3599167-.0370522 2.6275787 1.4868145 2.6275787 1.4868145 1.4385757 1.3512802.7663803 2.1071148 1.0121765 3.9420891 0 0 .0961914.6108932.1728363.9221153.609581 2.4752503 1.4014512 1.721344 1.2861176 2.5573959z" fill="#fcd462"/><path d="m80.137619 27.6671524c-.6590042-.4393787-4.8770981-1.5817566-8.1284409 1.2302341-3.2513962 2.8120193-.7030029 9.6223736.4393539 9.7541676 1.1424026.1318245 2.7680511-1.8453751 2.8998718-3.295311s.659111-1.4060211 2.3287506-1.5378189c1.2815094-.1011772 1.0099258 1.7131271.8144531 2.5620766-.0503693.2186203.1158371.4256783.3401642.4256783.176918 0 .3259888-.130867.3463974-.3066292.0529861-.4558945.1490173-1.3851051.2051239-2.5493279.0804367-1.6696167.6664505-1.8453789.3149719-2.6801968-.3514709-.8348198-.4832916-1.1863194 0-1.7135544.4832993-.5272617 1.7634048.2563267 1.7634048.2563267.1377032-1.1057262-.6649397-1.7062892-1.3240507-2.1456451z" fill="#4d5c7d"/><path d="m79.0272446 56.8069115c-1.3797531 5.1152267-3.0106812 15.4733772-3.0106812 15.4733772l-7.0673904.6136551c-5.8977814-.3047638-5.3623505-3.4266281-5.3623505-3.4266281s.9884109-1.9810181.8895721-4.6580734c-.0988388-2.6729317.0988388-13.2740631 1.2891541-17.2402229 1.1902161-3.9620399 6.4867096-6.313736 6.4867096-6.313736l5.2675858 2.9571114c3.4183578 4.9175452 2.8829803 7.4792899 1.5074005 12.5945167z" fill="#27a2db"/><path d="m87.9109497 106.5895844-1.3137817-15.7645875c-.0385284-.4630432-.1801682-.9116287-.4144821-1.3128891l-8.2440339-14.1201324-1.9212646-3.1106491-6.4041977 1.9212646 1.6467743 8.9658737 10.0637512 10.1552658s-1.280838 5.2148819 1.646843 11.9850159c2.9276123 6.7702026 3.0191345 10.1284637 3.0191345 10.1284637h3.1105804l.4017334-3.5556183c0 .0000001-1.3166427-1.9983901-1.5910568-5.2920073z" fill="#fcd462"/><path d="m87.8301773 105.6209412h-4.7285309c2.7932892 6.55616 2.8880081 9.8162537 2.8880081 9.8162537h3.1106262l.4017487-3.5555573s-1.316658-1.9984436-1.5911102-5.2920227c-.0218659-.2621842-.0494156-.592865-.0807419-.9686737z" fill="#3ea69b"/><path d="m62.4303398 77.0839005c-4.1891556 7.2262878-1.8851166 15.1856079-1.8851166 15.1856079s-6.0742035-.9425278-9.8444328-.6283493c-3.7702332.3141708-11.834301 1.1520157-11.834301 1.1520157l-.7330971 3.8749161 4.0844078-.1046829c5.7467995 1.2865677 16.4056206 1.3435822 20.0756721 1.3220291.7896309-.00457 1.5068398-.4458618 1.8726349-1.1457443l7.0938568-13.571228c.0000001-.0000001-4.6404723-13.3107912-8.8296241-6.0845643z" fill="#fcd462"/><path d="m49.3421516 91.7598648c-4.0618362.3669815-10.4756432 1.0333099-10.4756432 1.0333099l-.7331123 3.8749542 4.0843544-.1047211c2.001255.4480286 4.5309029.7764511 7.1244011 1.0175476z" fill="#44c4a1"/><path d="m75.5909348 44.4421883c-2.8257294-2.3735199-7.1940384-.5719719-7.5971222 3.0962486-.0053635.0488129-.0103912.0980797-.0150681.1478119-.4680557 4.9730988.4095459 6.6112938 3.2763901 7.0208435s6.1432419.5850716 7.313385-1.2286491c.9655228-1.4965592 1.1343613-5.5823594-2.9775848-9.0362549z" fill="#fcd462"/><path d="m85.6768417 62.9654732s1.0428314-.1148376.851738-.7016487c-.1014099-.3115044-.6103134-.3227577-.8310776-.2975197.2471085-.1003494.5115051-.2937851.4024582-.6521454-.1904984-.6258507-.9231567-.3024826-1.2521591-.2870216-3.452095.5096512-6.579361.1774826-9.1681824-1.5503731l.7343674-9.9558105s-1.1898117 2.8229027-1.7085037 5.2035828l-4.7183762-2.9332542s-.7029953 6.6788597-.4218063 9.1395035 4.9212875 2.7418556 8.7176666 3.5151901c3.7963867.7733307 6.3273392.7733307 6.7491989.7733307 0 0 .7914429.0888977 1.142334-.0703888.5047379-.2291183.5141068-1.1064529-.71595-1.0370941 0 0 1.0732498.1316681 1.2030487-.1119118.155571-.2919465.3345947-1.1968233-.9847565-1.0344392z" fill="#fcd462"/><path d="m63.8144684 68.9220963s-1.2481041 3.1267548-1.9934464 4.8568497c-.7453384 1.7301025-.2710304 6.1343842-.2710304 6.1343842l9.2230034 4.1170502h1.7538223s1.8972244-2.6858597 4.6753082-3.9137726c2.7780838-1.2279205 1.2874069-6.3376617 1.2874069-6.3376617l-2.2517853-2.857666c.0000001-.0000002-7.8550262 2.3906782-12.4232787-1.9991838z" fill="#4d5c7d"/><path d="m76.0197296 54.8658981.3088379-4.1868667.1798477 4.1868667z" fill="#dc8744"/><path d="m95.8424911 113.0320053c-1.2612076.7062912-4.0557022-.2036133-5.3198242-1.1637955-.3309097-.2513275-.7971115-.2318649-1.0759888.0761185-.6208954.6855774-1.8918533 1.6649857-4.2015991 1.8976364-.4718857.0475388-.7910309.5062714-.6933441.9703903l.7888641 3.7470093s.4580994 1.0728455 2.9508514.7398911c2.832428-.3783264 3.6848679-2.0266953 5.8957672-2.5794144 2.2109528-.5527573 5.5244522-3.0122604 5.5244522-4.3633804.0000001-1.3511505-2.3337783-.1842575-3.8691787.6755447z" fill="#d5d6db"/><path d="m99.7105637 112.3578415c0 1.3508911-3.0682983 4.0526581-5.2800064 4.6045303-2.2116013.5518951-3.0724182 2.1498947-5.8977356 2.5782089-2.8253098.4324417-3.1918716-.9802094-3.1918716-.9802094l-.0741501-.3459473c.3006439.3871155 1.0873489.9554825 3.0189209.6630783 2.8253174-.4283447 3.6860809-2.0263367 5.8936615-2.5782089 2.1416245-.535408 5.0863419-3.0847855 5.2758331-4.4727325.1606292.0905915.2553482.2594682.2553482.5312806z" fill="#4d5c7d"/><path d="m33.9833298 100.5223923c.3923836-1.3912277 3.0117912-2.7238312 4.5846062-2.9387512.411705-.0562744.7276039-.3996887.7070198-.8146591-.0457344-.9238205.1604195-2.5150757 1.6291466-4.3128128.3000603-.3672867.201355-.9173355-.1959-1.1764374l-3.2073479-2.0917206s-.9364052-.738266-2.6300735 1.5633774c-1.693634 2.3016052-1.1725082 4.038681-2.3450165 5.9928665-1.1725254 1.9542313-1.7560596 6.0363617-.8006744 6.991745.9554061.9554061 1.7805175-1.5199356 2.2582397-3.2136078z" fill="#d5d6db"/><path d="m31.7248955 103.7342377c-.9552269-.9552231-.6960506-5.0352707.4776306-6.989418 1.1735916-1.9540863.6523247-3.6927261 2.3472557-5.9934006 1.6920166-2.3035812 2.9501114-1.5638733 2.9501114-1.5638733l.2970543.1921844c-.4863205-.0611496-1.4445.0932465-2.603569 1.6658325-1.6949158 2.3006821-1.1736107 4.0392914-2.3443756 5.9905167-1.1357689 1.892952-1.4153156 5.7778625-.5678749 6.89328-.1776429.0495224-.3640328-.0029144-.5562325-.1951217z" fill="#4d5c7d"/></svg>