<svg xmlns="http://www.w3.org/2000/svg" width="63.052" height="24.6" viewBox="0 0 63.052 24.6">
    <defs>
        <style>
            .prefix__cls-1{fill:#5540b7}
        </style>
    </defs>
    <g id="prefix__Layer_2" data-name="Layer 2" transform="translate(.013 .002)">
        <g id="prefix__Layer_1" data-name="Layer 1" transform="translate(-.013 -.002)">
            <path id="prefix__Path_334" d="M12.119 14.671a1.921 1.921 0 0 1-1.038-3.535l11.337-7.3a1.921 1.921 0 1 1 2.075 3.228l-11.337 7.3a1.921 1.921 0 0 1-1.037.307z" class="prefix__cls-1" data-name="Path 334" transform="translate(9.426 3.203)"/>
            <path id="prefix__Path_335" d="M7.506 12.652a1.921 1.921 0 0 1-1.23-.442L.7 7.657A1.946 1.946 0 0 1 3.163 4.64l5.572 4.611a1.922 1.922 0 0 1-1.23 3.4z" class="prefix__cls-1" data-name="Path 335" transform="translate(.013 3.877)"/>
            <path id="prefix__Path_336" d="M35.395 12.628a1.921 1.921 0 0 1-1.23-.442l-5.572-4.554a1.924 1.924 0 0 1 2.459-2.959l5.572 4.611a1.872 1.872 0 0 1-1.23 3.343z" class="prefix__cls-1" data-name="Path 336" transform="translate(25.732 3.901)"/>
            <path id="prefix__Path_337" d="M11.652 13.223v-1.537H9.538v-.576h2.114v-.769h-1.345v-.577h1.345V9H9.538v-.581h2.114v-2.69c0-.96-.769-1.729-2.114-1.729s-1.921.576-1.921 1.729v7.686a3.977 3.977 0 0 0 1.921 7.494 4.189 4.189 0 0 0 4.035-4.035 3.632 3.632 0 0 0-1.921-3.651zM8.385 7.074V5.729c0-.769.769-.961 1.345-.961s1.345.192 1.345.961v1.345z" class="prefix__cls-1" data-name="Path 337" transform="translate(5.09 3.69)"/>
            <g id="prefix__surface1" transform="translate(36.34)">
                <path id="prefix__Path_338" d="M30.429.194a5.764 5.764 0 0 0-1.921.384l-.576 2.5h1.345l-1.154 3.265h.961l-3.074 4.611.961-4.035h-1.154l1.153-3.266h-1.537l.576-2.882A3.843 3.843 0 0 0 23.511 0 4.669 4.669 0 0 0 18.9 4.614c0 4.035 3.651 6.533 6.341 8.262a6.706 6.706 0 0 1 1.729 1.153h.384a6.706 6.706 0 0 1 1.729-1.153c2.69-1.729 6.341-4.227 6.341-8.262a5.169 5.169 0 0 0-5-4.419z" class="prefix__cls-1" data-name="Path 338" transform="translate(-18.9 .002)"/>
            </g>
        </g>
    </g>
</svg>
